HIERARCHY
ROOT Hips
{
	OFFSET 0.000000 0.000000 0.000000 
	CHANNELS 6 Xposition Yposition Zposition Zrotation Yrotation Xrotation
	JOINT LeftUpLeg
	{
		OFFSET 1.363060 -1.794630 0.839290 
		CHANNELS 3 Zrotation Yrotation Xrotation
		JOINT LeftLeg
		{
			OFFSET 2.448110 -6.726130 0.000000 
			CHANNELS 3 Zrotation Yrotation Xrotation
			JOINT LeftFoot
			{
				OFFSET 2.562200 -7.039590 0.000000 
				CHANNELS 3 Zrotation Yrotation Xrotation
				JOINT LeftToeBase
				{
					OFFSET 0.157640 -0.433110 2.322550 
					CHANNELS 3 Zrotation Yrotation Xrotation
					End Site
					{
						OFFSET 0.000000 0.000000 0.000000 
					}
				}
			}
		}
	}
	JOINT RightUpLeg
	{
		OFFSET -1.305520 -1.794630 0.839290 
		CHANNELS 3 Zrotation Yrotation Xrotation
		JOINT RightLeg
		{
			OFFSET -2.542530 -6.985550 0.000000 
			CHANNELS 3 Zrotation Yrotation Xrotation
			JOINT RightFoot
			{
				OFFSET -2.568260 -7.056230 0.000000 
				CHANNELS 3 Zrotation Yrotation Xrotation
				JOINT RightToeBase
				{
					OFFSET -0.164730 -0.452590 2.363150 
					CHANNELS 3 Zrotation Yrotation Xrotation
					End Site
					{
						OFFSET 0.000000 0.000000 0.000000 
					}
				}
			}
		}
	}
	JOINT Spine
	{
		OFFSET 0.028270 2.035590 -0.193380 
		CHANNELS 3 Zrotation Yrotation Xrotation
		JOINT Spine1
		{
			OFFSET 0.056720 2.048850 -0.042750 
			CHANNELS 3 Zrotation Yrotation Xrotation
			JOINT Neck1
			{
				OFFSET -0.054170 1.746240 0.172020 
				CHANNELS 3 Zrotation Yrotation Xrotation
				JOINT Head
				{
					OFFSET 0.104070 1.761360 -0.123970 
					CHANNELS 3 Zrotation Yrotation Xrotation
					End Site
					{
						OFFSET 0.000000 0.000000 0.000000 
					}
				}
			}
			JOINT LeftArm
			{
				OFFSET 3.362410 1.200890 -0.311210 
				CHANNELS 3 Zrotation Yrotation Xrotation
				JOINT LeftForeArm
				{
					OFFSET 4.983000 -0.000000 -0.000000 
					CHANNELS 3 Zrotation Yrotation Xrotation
					JOINT LeftHand
					{
						OFFSET 3.483560 -0.000000 -0.000000 
						CHANNELS 3 Zrotation Yrotation Xrotation
						JOINT LeftHandIndex1
						{
							OFFSET 0.715260 -0.000000 -0.000000 
							CHANNELS 3 Zrotation Yrotation Xrotation
							End Site
							{
								OFFSET 0.000000 0.000000 0.000000 
							}
						}
					}
				}
			}
			JOINT RightArm
			{
				OFFSET -3.136600 1.374050 -0.404650 
				CHANNELS 3 Zrotation Yrotation Xrotation
				JOINT RightForeArm
				{
					OFFSET -5.241900 -0.000000 -0.000000 
					CHANNELS 3 Zrotation Yrotation Xrotation
					JOINT RightHand
					{
						OFFSET -3.444170 -0.000000 -0.000000 
						CHANNELS 3 Zrotation Yrotation Xrotation
						JOINT RightHandIndex1
						{
							OFFSET -0.622530 -0.000000 -0.000000 
							CHANNELS 3 Zrotation Yrotation Xrotation
							End Site
							{
								OFFSET 0.000000 0.000000 0.000000 
							}
						}
					}
				}
			}
		}
	}
}
MOTION
Frames: 15
Frame Time: 0.041667
14.905201 14.308137 -15.034824 6.365118 -22.823268 27.735007 -13.276262 -36.695275 -72.922879 14.648500 24.871137 77.925365 2.394328 5.586208 -30.329432 0.432100 -4.218300 -11.691700 7.757222 22.871796 -83.137465 -16.126523 -26.682794 81.605641 -2.209074 -7.023624 -29.148420 -0.118500 2.219600 -6.112900 1.006534 -1.922859 -4.603433 -0.459772 -0.591719 -15.708748 4.010640 6.045274 -2.419574 1.149900 2.976000 0.517100 -72.484416 -2.896242 54.549031 70.984869 -51.290444 -43.639032 0.566989 -0.195952 -8.476741 -7.125000 0.000000 0.000000 55.472858 6.865138 57.121070 -72.092586 50.010249 -39.915353 -0.320850 0.723048 -56.258846 7.125000 0.000000 0.000000 
14.895420 14.311576 -15.015155 6.329985 -22.688055 27.789880 -13.215258 -36.813487 -72.856565 14.628779 24.858354 77.869227 2.389330 5.623324 -30.327530 0.451500 -4.310800 -11.952700 7.829737 22.841489 -83.027146 -16.127186 -26.684546 81.607704 -2.211776 -7.373823 -29.361647 -0.143700 2.442800 -6.731100 0.970916 -1.897228 -4.620410 -0.659094 -0.610837 -15.576606 3.853043 6.274846 -2.124476 1.041200 3.082500 0.606800 -70.738090 -2.088019 53.870756 67.978591 -50.816839 -40.790079 0.587615 -0.247287 -7.216933 -7.125000 0.000000 0.000000 54.504731 5.279970 58.558326 -69.443142 49.722775 -37.270207 -0.305518 0.792044 -54.026204 7.125000 0.000000 0.000000 
14.884134 14.307600 -14.998925 6.340521 -22.709509 27.783632 -13.262855 -36.823725 -72.701900 14.602249 24.849350 77.802454 2.384087 5.780043 -30.400023 0.540800 -4.711600 -13.087900 7.779606 22.959726 -82.986234 -16.148147 -26.680691 81.658112 -2.224725 -7.408943 -29.452063 -0.100800 2.047700 -5.637500 0.965118 -1.872788 -4.644462 -0.665829 -0.599636 -15.601084 3.594454 6.640021 -2.109441 0.901300 3.248300 0.519100 -69.359356 -1.135509 52.444326 64.906527 -50.272442 -37.922871 0.602925 -0.320896 -5.119700 -7.125000 0.000000 0.000000 53.232329 3.653453 60.090882 -67.119628 49.385617 -35.017695 -0.276683 0.840865 -51.142236 7.125000 0.000000 0.000000 
14.872741 14.315338 -14.985060 6.528732 -22.870147 27.634695 -13.587907 -36.813964 -72.353747 14.544617 24.825363 77.662515 2.385156 5.875537 -30.469957 0.556100 -4.776800 -13.273100 7.624322 23.003813 -82.868741 -16.151108 -26.668912 81.653233 -2.239704 -7.189930 -29.418177 -0.058200 1.557100 -4.283200 0.928009 -1.823995 -4.645835 -0.610517 -0.558108 -15.591372 3.415522 7.045156 -2.172954 0.820200 3.440700 0.395600 -67.893588 -0.217279 50.824284 62.047841 -49.687450 -35.295531 0.602406 -0.416117 -2.746623 -7.125000 0.000000 0.000000 51.883760 1.770739 61.338843 -65.494806 49.111005 -33.440263 -0.213187 0.877834 -47.113060 7.125000 0.000000 0.000000 
14.860166 14.327484 -14.970765 6.547947 -22.976941 27.640774 -13.671573 -36.756779 -72.191763 14.500544 24.816457 77.553053 2.368992 6.037747 -30.488475 0.516800 -4.607400 -12.792100 7.637498 23.089788 -82.757413 -16.114707 -26.657841 81.557713 -2.263260 -7.211192 -29.568204 -0.047200 1.401500 -3.854200 0.896316 -1.724826 -4.645019 -0.635727 -0.511631 -15.412433 3.366457 7.424115 -1.880289 0.816000 3.632700 0.543400 -66.267209 0.478672 49.067943 59.237081 -49.005420 -32.764954 0.584048 -0.507561 0.137733 -7.125000 0.000000 0.000000 50.771166 -0.286259 62.141796 -64.191010 48.860915 -32.130721 -0.124146 0.899868 -41.902362 7.125000 0.000000 0.000000 
14.850707 14.337910 -14.955395 6.344738 -22.964862 27.824708 -13.427286 -36.689190 -72.225265 14.475190 24.820347 77.476879 2.377489 6.100513 -30.582663 0.501300 -4.539000 -12.598100 7.842033 23.216776 -82.698144 -16.054783 -26.646931 81.419854 -2.248180 -7.277260 -29.520709 -0.024500 1.010100 -2.776700 0.885933 -1.584244 -4.674590 -0.755271 -0.466114 -15.330029 3.338974 7.785882 -1.644518 0.847700 3.820100 0.651000 -64.670980 1.158919 47.131498 56.406797 -48.193754 -30.277697 0.557437 -0.583841 3.346015 -7.125000 0.000000 0.000000 49.840958 -2.111558 62.702179 -62.017976 48.358228 -30.072398 -0.020836 0.919350 -36.142826 7.125000 0.000000 0.000000 
14.847160 14.349088 -14.942282 6.079587 -22.840181 27.965955 -13.111728 -36.714372 -72.236597 14.468502 24.816952 77.443196 2.376791 6.069553 -30.563342 0.474700 -4.418700 -12.257800 8.195597 23.241496 -82.538693 -15.994884 -26.630315 81.290364 -2.209529 -6.991172 -29.140674 -0.010500 0.661500 -1.817700 0.882734 -1.466076 -4.716595 -0.944632 -0.443892 -15.444657 3.141730 8.217362 -1.728211 0.767100 4.026600 0.532500 -63.001773 2.106666 45.365535 53.723545 -47.311449 -27.973869 0.515333 -0.663454 6.200346 -7.125000 0.000000 0.000000 48.667727 -3.922905 63.336216 -59.740075 47.726055 -27.936657 0.068529 0.901001 -29.960406 7.125000 0.000000 0.000000 
14.841356 14.357579 -14.933898 6.088505 -22.842869 28.035250 -13.051944 -36.783651 -72.275063 14.440260 24.811466 77.371623 2.336601 6.185118 -30.418899 0.472900 -4.410500 -12.234600 8.213609 23.227880 -82.535754 -15.958761 -26.627184 81.199421 -2.202575 -7.029791 -29.125918 -0.033700 1.185700 -3.259800 0.868561 -1.408505 -4.786386 -0.986538 -0.422301 -15.608221 2.881064 8.802154 -1.635806 0.628600 4.303400 0.527100 -61.346364 3.203938 43.694364 51.051613 -46.316179 -25.728632 0.420332 -0.759667 8.960351 -7.125000 0.000000 0.000000 47.312476 -5.855474 64.035500 -57.524824 46.978326 -25.872485 0.109829 0.831756 -23.094475 7.125000 0.000000 0.000000 
14.832650 14.363813 -14.926267 6.466785 -23.076931 27.951427 -13.430411 -36.849050 -72.167634 14.365596 24.793791 77.194958 2.322179 6.293745 -30.414600 0.488700 -4.482300 -12.437800 7.775072 23.213076 -82.666154 -15.950985 -26.633246 81.154387 -2.205422 -7.420647 -29.369978 -0.086200 1.893800 -5.212100 0.827233 -1.392085 -4.850195 -0.831254 -0.377492 -15.722553 2.703896 9.440749 -1.519568 0.555400 4.614500 0.530100 -59.828574 4.226084 41.804761 48.441077 -45.214636 -23.576909 0.254714 -0.842779 12.067082 -7.125000 0.000000 0.000000 45.964676 -7.574200 64.651975 -54.770545 45.891185 -23.422867 0.121013 0.731364 -16.437512 7.125000 0.000000 0.000000 
14.824481 14.371229 -14.916379 6.582273 -23.242310 27.843834 -13.645437 -36.820938 -71.918966 14.316014 24.773134 77.068340 2.341159 6.210306 -30.470954 0.435800 -4.236200 -11.742200 7.690722 23.267042 -82.563915 -15.931640 -26.623924 81.098378 -2.205252 -7.507321 -29.422530 -0.095000 1.987600 -5.471400 0.786169 -1.352098 -4.870161 -0.829599 -0.348168 -15.824956 2.547962 9.976401 -1.839175 0.477100 4.872400 0.256600 -58.382733 5.331102 39.581300 46.056409 -44.091789 -21.657354 0.039026 -0.865133 15.705009 -7.125000 0.000000 0.000000 44.729731 -9.021352 65.077228 -51.821991 44.547527 -20.910861 0.119938 0.608208 -10.679784 7.125000 0.000000 0.000000 
14.817710 14.383160 -14.902514 6.326469 -23.216868 27.928320 -13.414567 -36.768735 -71.817553 14.315551 24.765402 77.047287 2.376503 5.972621 -30.517341 0.342600 -3.761400 -10.406200 8.028674 23.341806 -82.364611 -15.888276 -26.610015 81.002035 -2.239255 -7.352480 -29.529778 -0.074700 1.763600 -4.852700 0.765710 -1.245889 -4.887997 -1.033021 -0.329650 -15.914563 2.370417 10.458844 -2.322728 0.367800 5.099600 -0.110500 -56.971823 6.557843 37.260519 43.816232 -42.923856 -19.912687 -0.197949 -0.796614 19.523814 -7.125000 0.000000 0.000000 43.623810 -10.516731 65.142389 -48.937598 43.022418 -18.573172 0.074078 0.505247 -5.508169 7.125000 0.000000 0.000000 
14.813733 14.389823 -14.888863 6.094498 -23.158745 28.179152 -13.023757 -36.786078 -72.024134 14.346020 24.772717 77.097689 2.445091 5.530795 -30.618785 0.258800 -3.272800 -9.039300 8.233981 23.395995 -82.414135 -15.856665 -26.610084 80.932162 -2.275965 -7.262479 -29.687490 -0.059300 1.571200 -4.322100 0.763020 -1.140729 -4.913536 -1.200810 -0.312284 -15.865822 2.103856 11.031792 -2.610985 0.224800 5.367600 -0.314700 -55.632524 7.703894 34.822368 41.714539 -41.728656 -18.352463 -0.421725 -0.629193 23.129371 -7.125000 0.000000 0.000000 42.428679 -11.879840 65.016169 -45.981442 41.223824 -16.287997 -0.065087 0.369495 -1.306290 7.125000 0.000000 0.000000 
14.811584 14.384987 -14.880480 6.011620 -23.164368 28.346468 -12.817966 -36.801133 -72.196599 14.367566 24.780976 77.137201 2.501481 5.246501 -30.752528 0.233600 -3.110600 -8.586800 8.286331 23.408926 -82.542741 -15.850911 -26.614592 80.917534 -2.337513 -6.953675 -29.863749 -0.036200 1.227500 -3.375000 0.740300 -1.089579 -4.939386 -1.328094 -0.310480 -15.855723 1.847674 11.691772 -2.868091 0.090800 5.677800 -0.462200 -54.376719 8.813934 32.002610 39.666182 -40.472841 -16.927925 -0.591740 -0.394157 26.757959 -7.125000 0.000000 0.000000 41.192352 -12.962985 64.782600 -43.068711 39.232054 -14.154094 -0.221102 0.194419 1.238749 7.125000 0.000000 0.000000 
14.807499 14.384127 -14.872311 5.991718 -23.269507 28.397326 -12.832254 -36.761387 -72.133845 14.344087 24.784057 77.086926 2.457917 5.635883 -30.757511 0.311400 -3.587400 -9.918700 8.295286 23.461611 -82.567569 -15.846135 -26.607559 80.900585 -2.406752 -6.333774 -29.922679 -0.008900 0.607800 -1.670100 0.688366 -1.028081 -4.956424 -1.474234 -0.297443 -15.935227 1.537408 12.316968 -3.378402 -0.088400 5.961600 -0.741200 -53.111216 9.863511 28.737629 37.593503 -39.101630 -15.556679 -0.690257 -0.182698 30.686683 -7.125000 0.000000 0.000000 40.258081 -13.970475 63.906542 -40.308959 37.124565 -12.246278 -0.342629 0.078197 2.383853 7.125000 0.000000 0.000000 
14.803200 14.390253 -14.863283 6.050227 -23.510563 28.406018 -12.968435 -36.717792 -72.011792 14.299810 24.783062 76.992408 2.385482 6.180873 -30.708332 0.413900 -4.129800 -11.442100 8.140751 23.622191 -82.593838 -15.833399 -26.595206 80.863975 -2.394076 -6.082003 -29.722663 -0.002000 0.285800 -0.785200 0.617849 -0.932608 -4.958285 -1.616274 -0.259067 -15.972534 1.086260 12.881729 -3.940076 -0.350200 6.203000 -1.011500 -51.861348 10.750558 24.847013 35.689748 -37.748989 -14.334362 -0.736802 -0.032511 34.961373 -7.125000 0.000000 0.000000 39.576440 -15.088779 62.182610 -37.913473 35.092403 -10.685122 -0.461194 0.056535 2.579972 7.125000 0.000000 0.000000 
